<svg xmlns="http://www.w3.org/2000/svg" xmlns:xlink="http://www.w3.org/1999/xlink" version="1.1" width="256" height="256" viewBox="0 0 256 256" xml:space="preserve">
<g style="stroke: none; stroke-width: 0; stroke-dasharray: none; stroke-linecap: butt; stroke-linejoin: miter; stroke-miterlimit: 10; fill: none; fill-rule: nonzero; opacity: 1;" transform="translate(1.4065934065934016 1.4065934065934016) scale(2.81 2.81)">
	<path d="M 55.54 70.832 c -0.208 0 -0.418 -0.019 -0.627 -0.058 c -1.116 -0.211 -2.048 -0.953 -2.499 -1.987 l -7.125 -16.291 c -0.024 -0.055 -0.063 -0.085 -0.123 -0.097 c -0.056 -0.009 -0.104 0.004 -0.147 0.047 l -4.375 4.375 c -0.096 0.096 -0.131 0.238 -0.091 0.37 l 1.298 4.259 c 0.316 1.043 0.035 2.168 -0.734 2.938 l -1.701 1.701 c -0.68 0.681 -1.646 0.988 -2.593 0.818 c -0.942 -0.165 -1.749 -0.782 -2.155 -1.65 l -3.141 -6.697 l -6.832 -3.204 c -0.868 -0.406 -1.485 -1.213 -1.649 -2.157 c -0.165 -0.944 0.141 -1.913 0.818 -2.59 l 1.702 -1.701 c 0.772 -0.774 1.898 -1.054 2.942 -0.734 l 4.258 1.297 c 0.13 0.041 0.27 0.004 0.367 -0.093 l 4.412 -4.411 c 0.042 -0.042 0.056 -0.088 0.045 -0.147 c -0.011 -0.061 -0.041 -0.098 -0.096 -0.122 L 21.2 37.574 c -1.033 -0.451 -1.776 -1.383 -1.985 -2.493 c -0.21 -1.109 0.141 -2.248 0.94 -3.046 l 1.648 -1.649 c 0.819 -0.818 1.988 -1.163 3.119 -0.926 l 22.015 4.653 c 0.751 0.161 1.529 -0.071 2.076 -0.615 l 10.81 -10.809 c 2.013 -2.011 5.223 -2.155 7.308 -0.324 c 1.113 0.979 1.753 2.33 1.801 3.806 c 0.046 1.458 -0.518 2.882 -1.546 3.911 L 56.49 40.975 c -0.545 0.545 -0.775 1.322 -0.615 2.077 l 4.653 22.014 c 0.238 1.133 -0.107 2.299 -0.926 3.118 l -1.649 1.649 C 57.309 70.478 56.452 70.832 55.54 70.832 z M 45.139 50.397 c 0.132 0 0.264 0.012 0.396 0.036 c 0.719 0.137 1.294 0.596 1.586 1.261 l 7.125 16.292 c 0.188 0.428 0.573 0.735 1.032 0.822 c 0.443 0.078 0.932 -0.061 1.261 -0.39 l 1.648 -1.648 c 0.339 -0.34 0.482 -0.823 0.384 -1.292 l -4.653 -22.013 c -0.301 -1.419 0.132 -2.879 1.158 -3.905 l 10.895 -10.894 c 0.64 -0.639 0.99 -1.525 0.962 -2.432 c -0.03 -0.917 -0.429 -1.758 -1.122 -2.368 c -1.295 -1.136 -3.305 -1.033 -4.574 0.236 l -10.811 10.81 c -1.026 1.025 -2.489 1.455 -3.903 1.157 l -22.013 -4.653 c -0.468 -0.099 -0.953 0.044 -1.292 0.383 l -1.648 1.649 c -0.331 0.331 -0.477 0.801 -0.39 1.26 c 0.087 0.459 0.394 0.845 0.821 1.032 l 16.293 7.125 c 0.667 0.292 1.125 0.869 1.259 1.582 c 0.135 0.713 -0.082 1.417 -0.596 1.933 l -4.413 4.412 c -0.619 0.619 -1.524 0.844 -2.362 0.592 l -4.262 -1.298 c -0.334 -0.103 -0.694 -0.013 -0.941 0.234 l -1.703 1.702 c -0.217 0.217 -0.315 0.528 -0.262 0.832 c 0.053 0.302 0.25 0.56 0.528 0.69 l 7.487 3.511 l 3.448 7.353 c 0.13 0.279 0.389 0.477 0.692 0.529 c 0.303 0.052 0.612 -0.045 0.831 -0.263 l 1.701 -1.701 c 0.247 -0.247 0.337 -0.608 0.235 -0.943 l -1.298 -4.26 c -0.254 -0.839 -0.028 -1.744 0.59 -2.363 l 4.377 -4.377 C 44.016 50.621 44.569 50.397 45.139 50.397 z" style="stroke: none; stroke-width: 1; stroke-dasharray: none; stroke-linecap: butt; stroke-linejoin: miter; stroke-miterlimit: 10; fill: rgb(0,0,0); fill-rule: nonzero; opacity: 1;" transform=" matrix(1 0 0 1 0 0) " stroke-linecap="round"/>
	<path d="M 80.593 90 H 9.407 C 4.22 90 0 85.78 0 80.593 V 9.407 C 0 4.22 4.22 0 9.407 0 h 71.186 C 85.78 0 90 4.22 90 9.407 v 71.186 C 90 85.78 85.78 90 80.593 90 z M 9.407 2 C 5.323 2 2 5.323 2 9.407 v 71.186 C 2 84.677 5.323 88 9.407 88 h 71.186 C 84.677 88 88 84.677 88 80.593 V 9.407 C 88 5.323 84.677 2 80.593 2 H 9.407 z" style="stroke: none; stroke-width: 1; stroke-dasharray: none; stroke-linecap: butt; stroke-linejoin: miter; stroke-miterlimit: 10; fill: rgb(0,0,0); fill-rule: nonzero; opacity: 1;" transform=" matrix(1 0 0 1 0 0) " stroke-linecap="round"/>
</g>
</svg>